HIERARCHY
ROOT Hips
{
	OFFSET 0.000000 0.000000 0.000000
	CHANNELS 6 Xposition Yposition Zposition Zrotation Yrotation Xrotation 
	JOINT LHipJoint
	{
		OFFSET 0.000000 0.000000 0.000000
		CHANNELS 3 Zrotation Yrotation Xrotation
		JOINT LeftUpLeg
		{
			OFFSET 1.363060 -1.794630 0.839290
			CHANNELS 3 Zrotation Yrotation Xrotation
			JOINT LeftLeg
			{
				OFFSET 2.448110 -6.726130 0.000000
				CHANNELS 3 Zrotation Yrotation Xrotation
				JOINT LeftFoot
				{
					OFFSET 2.562200 -7.039590 0.000000
					CHANNELS 3 Zrotation Yrotation Xrotation
					JOINT LeftToeBase
					{
						OFFSET 0.157640 -0.433110 2.322550
						CHANNELS 3 Zrotation Yrotation Xrotation
						End Site
						{
							OFFSET 0.000000 0.000000 0.000000
						}
					}
				}
			}
		}
	}
	JOINT RHipJoint
	{
		OFFSET 0.000000 0.000000 0.000000
		CHANNELS 3 Zrotation Yrotation Xrotation
		JOINT RightUpLeg
		{
			OFFSET -1.305520 -1.794630 0.839290
			CHANNELS 3 Zrotation Yrotation Xrotation
			JOINT RightLeg
			{
				OFFSET -2.542530 -6.985550 0.000000
				CHANNELS 3 Zrotation Yrotation Xrotation
				JOINT RightFoot
				{
					OFFSET -2.568260 -7.056230 0.000000
					CHANNELS 3 Zrotation Yrotation Xrotation
					JOINT RightToeBase
					{
						OFFSET -0.164730 -0.452590 2.363150
						CHANNELS 3 Zrotation Yrotation Xrotation
						End Site
						{
							OFFSET 0.000000 0.000000 0.000000
						}
					}
				}
			}
		}
	}
}
MOTION
Frames: 22
Frame Time: 0.008333
4.618755 17.182999 0.341716 -76.133318 83.246139 -59.799315 -10.221384 0.181219 6.571926 2.824647 -7.295260 -45.251939 0.692511 1.213358 46.314325 3.716172 18.180468 -11.714088 -0.598600 0.000000 -16.073700 7.104445 -3.387794 5.721978 25.979753 4.845638 -7.652446 4.630341 2.305709 0.077134 -0.636362 -0.801186 -8.777640 179.903500 0.000000 -15.531500
4.871045 17.191750 0.372919 -67.860851 83.007770 -51.602250 -10.100058 0.239485 6.667445 2.385915 -6.624884 -45.907304 0.534336 1.049137 42.858751 3.753345 17.996707 -11.082468 -0.306500 -0.000000 -17.538600 7.161504 -3.406995 5.525863 25.778266 3.950297 -5.990435 4.627277 2.423264 -1.095572 -0.478088 -0.310653 -7.999504 179.868400 0.000000 -16.242800
5.122558 17.196195 0.399637 -60.055627 82.644833 -43.948334 -10.067368 0.283156 6.702148 1.843437 -5.717119 -46.320485 0.343219 0.871936 39.182871 3.714252 17.515892 -10.283716 0.028700 -0.000000 -19.437900 7.142114 -3.458035 5.310624 25.534886 3.083007 -4.285608 4.625808 2.502584 -2.139879 -0.310176 0.241542 -7.145461 179.841400 -0.000000 -16.380200
5.372637 17.196395 0.422241 -53.315309 82.206026 -37.448373 -10.099275 0.299095 6.665510 1.178985 -4.612287 -46.491070 0.111959 0.675702 35.345860 3.587930 16.711679 -9.373085 0.365401 0.000000 -21.622000 7.081769 -3.544749 5.068172 25.234702 2.213954 -2.540317 4.621773 2.535722 -3.045574 -0.130685 0.882208 -6.214562 179.829600 0.000000 -15.877800
5.621575 17.192201 0.440996 -47.846098 81.726495 -32.285028 -10.167357 0.287738 6.563599 0.403859 -3.348290 -46.484283 -0.163949 0.459583 31.420430 3.369902 15.572130 -8.392029 0.667700 0.000000 -23.971300 7.010707 -3.661511 4.813728 24.884443 1.376991 -0.791117 4.613394 2.523131 -3.805933 0.054700 1.594265 -5.205320 179.838800 0.000000 -14.679099
5.869443 17.183804 0.456545 -43.520316 81.241158 -28.325649 -10.246732 0.257242 6.401648 -0.480827 -1.966396 -46.339729 -0.489310 0.226959 27.481113 3.060949 14.098320 -7.389041 0.900400 -0.000000 -26.396100 6.952712 -3.798439 4.546829 24.478283 0.559606 0.945319 4.599655 2.466620 -4.404751 0.243673 2.384007 -4.126474 179.876901 0.000000 -12.819900
6.116364 17.171503 0.469672 -40.090093 80.769050 -25.329465 -10.317332 0.220761 6.197505 -1.467012 -0.514960 -46.089633 -0.861960 -0.018200 23.603011 2.669033 12.308797 -6.395441 1.041200 0.000000 -28.973300 6.908943 -3.960583 4.235733 24.037593 -0.254513 2.222352 4.583196 2.272181 -3.865052 0.409288 3.278255 -3.497687 179.951600 0.000000 -10.322900
6.362921 17.155747 0.481007 -37.348676 80.340303 -23.059239 -10.370453 0.173012 5.961415 -2.533127 0.938492 -45.787001 -1.274678 -0.272159 19.869319 2.211181 10.231960 -5.476412 1.071200 0.000000 -31.464401 6.894812 -4.123133 3.917661 23.523718 -1.075677 3.491005 4.558774 2.058653 -3.255380 0.558621 4.225642 -2.778454 -179.933200 -0.000000 -7.386200
6.609621 17.137052 0.491386 -35.103765 79.974158 -21.311236 -10.398456 0.113289 5.709887 -3.646770 2.316596 -45.450604 -1.709781 -0.531636 16.346323 1.711821 7.928717 -4.655897 0.996500 0.000000 -34.013300 6.913624 -4.278641 3.597265 22.923951 -1.931655 4.848829 4.524429 1.855227 -2.826591 0.698602 5.207009 -1.852530 -179.775300 0.000000 -4.066701
6.857084 17.116001 0.501456 -33.210104 79.680447 -19.927665 -10.396825 0.041224 5.464430 -4.757532 3.535509 -45.088233 -2.143806 -0.793881 13.090796 1.201834 5.480978 -3.977560 0.833100 -0.000001 -36.525100 6.962529 -4.425218 3.274176 22.239435 -2.835588 6.280900 4.479023 1.665324 -2.585375 0.832917 6.196933 -0.734417 -179.576900 -0.000000 -0.449400
7.106210 17.093171 0.511655 -31.611511 79.458981 -18.832545 -10.367722 -0.044590 5.247814 -5.793132 4.518339 -44.705093 -2.549934 -1.055470 10.147336 0.713367 2.991284 -3.479145 0.610700 0.000001 -38.921200 7.032524 -4.560309 2.953072 21.491563 -3.773905 7.773313 4.424280 1.496411 -2.540375 0.964291 7.157369 0.498910 0.649899 0.000001 -2.791300
7.357470 17.069117 0.522662 -30.185843 79.310587 -17.900453 -10.313856 -0.140197 5.075059 -6.695486 5.194913 -44.266666 -2.904204 -1.311813 7.532123 0.275786 0.587287 -3.177975 0.368600 0.000000 -41.166900 7.123366 -4.685937 2.628653 20.670077 -4.766433 9.320582 4.357964 1.344793 -2.691770 1.103270 8.071908 1.892904 0.900600 0.000000 -6.161600
7.611631 17.044310 0.534794 -28.893333 79.224518 -17.077699 -10.243808 -0.242541 4.958083 -7.402954 5.528074 -43.760891 -3.189047 -1.556538 5.261426 -0.090534 -1.611732 -3.085842 0.143700 0.000001 -43.128200 7.226633 -4.801860 2.307360 19.793860 -5.780374 10.913575 4.281348 1.212479 -3.038408 1.254907 8.903701 3.413575 1.160800 -0.000000 -9.341200
7.869268 17.019177 0.548413 -27.661142 79.185461 -16.298846 -10.165481 -0.340441 4.906030 -7.887511 5.515116 -43.170400 -3.396544 -1.781343 3.348567 -0.376257 -3.505419 -3.190921 -0.035400 -0.000000 -44.738100 7.333009 -4.916230 1.965581 18.882249 -6.784774 12.061054 4.190841 1.003031 -2.504494 1.343757 9.651064 4.502166 1.423100 0.000000 -12.378300
8.130817 16.994023 0.563861 -26.412073 79.184032 -15.478028 -10.086512 -0.428363 4.909674 -8.156336 5.182431 -42.503837 -3.529616 -1.975671 1.813962 -0.581555 -5.026039 -3.462406 -0.154500 0.000000 -45.951800 7.443607 -5.025357 1.625452 17.931152 -7.735550 12.934161 4.082393 0.751918 -1.481547 1.387261 10.287698 5.422135 1.688200 -0.000000 -15.691900
8.396648 16.969033 0.581350 -25.064669 79.208646 -14.524356 -10.011664 -0.499523 4.954863 -8.247901 4.580715 -41.791640 -3.598781 -2.128570 0.685085 -0.713391 -6.142452 -3.852594 -0.214400 -0.000001 -46.778900 7.558224 -5.128792 1.312406 16.946613 -8.569170 13.698764 3.951505 0.488384 -0.357282 1.410224 10.784861 6.495192 1.969500 0.000000 -20.244900
8.666925 16.944320 0.600952 -23.558922 79.248633 -13.374450 -9.944314 -0.546996 5.027807 -8.217169 3.774069 -41.073782 -3.617904 -2.230667 -0.010135 -0.782186 -6.855110 -4.302409 -0.227100 -0.000001 -47.273501 7.674324 -5.226914 1.040568 15.947122 -9.228181 14.362399 3.795437 0.214446 0.833692 1.412973 11.146136 7.790268 2.278300 0.000000 -26.260700
8.941620 16.919893 0.622699 -21.832459 79.295760 -11.961950 -9.885575 -0.565240 5.116003 -8.124621 2.821328 -40.390526 -3.600418 -2.275568 -0.257155 -0.797930 -7.175684 -4.743943 -0.209900 0.000000 -47.510900 7.791557 -5.321450 0.822684 14.951939 -9.663664 14.928676 3.609817 -0.069161 2.046653 1.394171 11.380147 9.433295 2.637200 0.000000 -34.526900
9.220445 16.895760 0.646519 -19.854521 79.351409 -10.264093 -9.837080 -0.551542 5.208989 -8.027208 1.776802 -39.765992 -3.557133 -2.260120 -0.056942 -0.770138 -7.130647 -5.106777 -0.179901 0.000000 -47.567300 7.912092 -5.409592 0.656211 13.962242 -9.892700 15.387678 3.399555 -0.355278 3.315939 1.357222 11.581614 11.285277 3.046300 -0.000000 -43.443100
9.502854 16.871818 0.672391 -17.580242 79.420537 -8.245988 -9.798490 -0.504999 5.297255 -7.983195 0.690197 -39.216817 -3.496665 -2.184070 0.573897 -0.707549 -6.757553 -5.323017 -0.149599 0.000000 -47.502100 8.041911 -5.490676 0.535001 12.963626 -9.952752 15.723259 3.167933 -0.640793 4.695034 1.306266 11.850881 13.246184 3.520800 -0.000000 -51.838200
9.788065 16.847882 0.700336 -14.958549 79.508855 -5.867149 -9.767959 -0.426923 5.370485 -8.052213 -0.384604 -38.756417 -3.426173 -2.049479 1.609554 -0.619510 -6.113788 -5.334546 -0.124000 0.000000 -47.347800 8.189080 -5.566231 0.451869 11.934533 -9.893398 15.916954 2.915054 -0.924942 6.232159 1.242770 12.268483 15.292066 4.092800 0.000000 -59.276500
10.075156 16.823806 0.730341 -11.954898 79.623770 -3.104698 -9.743369 -0.321044 5.417736 -8.288575 -1.386856 -38.393781 -3.351347 -1.860669 3.018341 -0.516645 -5.278728 -5.101208 -0.100200 0.000000 -47.108100 8.361753 -5.637657 0.397938 10.852193 -9.776856 15.949340 2.641792 -1.205410 7.982596 1.166525 12.899355 17.380666 4.794600 0.000000 -65.058200
